<?xml version="1.0" encoding="UTF-8"?>
<svg xmlns="http://www.w3.org/2000/svg" width="841.000" height="595.000" viewBox="0.0 0.0 841.000 595.000" version="1.1">
  <title>Produce by Acme CAD Converter</title>
  <desc>Produce by Acme CAD Converter</desc>
<path d="M186.66 132.9L186.86 129.94M186.86 129.94L187.44 127.04M187.44 127.04L188.39 124.23M188.39 124.23L189.7 121.57M189.7 121.57L191.35 119.11M191.35 119.11L193.3 116.88M193.3 116.88L195.53 114.93M195.53 114.93L197.99 113.28M197.99 113.28L200.65 111.97M200.65 111.97L203.45 111.02M203.45 111.02L206.36 110.44M206.36 110.44L209.32 110.25M209.32 110.25L212.27 110.44M212.27 110.44L215.18 111.02M215.18 111.02L217.99 111.97M217.99 111.97L220.64 113.28M220.64 113.28L223.11 114.93M223.11 114.93L225.33 116.88M225.33 116.88L227.29 119.11M227.29 119.11L228.93 121.57M228.93 121.57L230.25 124.23M230.25 124.23L231.2 127.04M231.2 127.04L231.78 129.94M231.78 129.94L231.97 132.9M231.97 132.9L231.78 135.86M231.78 135.86L231.2 138.76M231.2 138.76L230.25 141.57M230.25 141.57L228.93 144.23M228.93 144.23L227.29 146.69M227.29 146.69L225.33 148.92M225.33 148.92L223.11 150.87M223.11 150.87L220.64 152.52M220.64 152.52L217.99 153.83M217.99 153.83L215.18 154.78M215.18 154.78L212.27 155.36M212.27 155.36L209.32 155.55M209.32 155.55L206.36 155.36M206.36 155.36L203.45 154.78M203.45 154.78L200.65 153.83M200.65 153.83L197.99 152.52M197.99 152.52L195.53 150.87M195.53 150.87L193.3 148.92M193.3 148.92L191.35 146.69M191.35 146.69L189.7 144.23M189.7 144.23L188.39 141.57M188.39 141.57L187.44 138.76M187.44 138.76L186.86 135.86M186.86 135.86L186.66 132.9"
fill="none" stroke="black" stroke-width="0.5"/>
<path d="M186.94 76.27L187.13 73.31M187.13 73.31L187.71 70.41M187.71 70.41L188.66 67.6M188.66 67.6L189.97 64.94M189.97 64.94L191.62 62.48M191.62 62.48L193.57 60.25M193.57 60.25L195.8 58.3M195.8 58.3L198.26 56.65M198.26 56.65L200.92 55.34M200.92 55.34L203.73 54.39M203.73 54.39L206.63 53.81M206.63 53.81L209.59 53.62M209.59 53.62L212.55 53.81M212.55 53.81L215.45 54.39M215.45 54.39L218.26 55.34M218.26 55.34L220.92 56.65M220.92 56.65L223.38 58.3M223.38 58.3L225.61 60.25M225.61 60.25L227.56 62.48M227.56 62.48L229.21 64.94M229.21 64.94L230.52 67.6M230.52 67.6L231.47 70.41M231.47 70.41L232.05 73.31M232.05 73.31L232.24 76.27M232.24 76.27L232.05 79.23M232.05 79.23L231.47 82.13M231.47 82.13L230.52 84.94M230.52 84.94L229.21 87.59M229.21 87.59L227.56 90.06M227.56 90.06L225.61 92.29M225.61 92.29L223.38 94.24M223.38 94.24L220.92 95.89M220.92 95.89L218.26 97.2M218.26 97.2L215.45 98.15M215.45 98.15L212.55 98.73M212.55 98.73L209.59 98.92M209.59 98.92L206.63 98.73M206.63 98.73L203.73 98.15M203.73 98.15L200.92 97.2M200.92 97.2L198.26 95.89M198.26 95.89L195.8 94.24M195.8 94.24L193.57 92.29M193.57 92.29L191.62 90.06M191.62 90.06L189.97 87.59M189.97 87.59L188.66 84.94M188.66 84.94L187.71 82.13M187.71 82.13L187.13 79.23M187.13 79.23L186.94 76.27"
fill="none" stroke="black" stroke-width="0.5"/>
<path d="M68.01 132.9L68.21 129.94M68.21 129.94L68.79 127.04M68.79 127.04L69.74 124.23M69.74 124.23L71.05 121.57M71.05 121.57L72.69 119.11M72.69 119.11L74.65 116.88M74.65 116.88L76.88 114.93M76.88 114.93L79.34 113.28M79.34 113.28L82 111.97M82 111.97L84.8 111.02M84.8 111.02L87.71 110.44M87.71 110.44L90.67 110.25M90.67 110.25L93.62 110.44M93.62 110.44L96.53 111.02M96.53 111.02L99.33 111.97M99.33 111.97L101.99 113.28M101.99 113.28L104.46 114.93M104.46 114.93L106.68 116.88M106.68 116.88L108.64 119.11M108.64 119.11L110.28 121.57M110.28 121.57L111.59 124.23M111.59 124.23L112.55 127.04M112.55 127.04L113.12 129.94M113.12 129.94L113.32 132.9M113.32 132.9L113.12 135.86M113.12 135.86L112.55 138.76M112.55 138.76L111.59 141.57M111.59 141.57L110.28 144.23M110.28 144.23L108.64 146.69M108.64 146.69L106.68 148.92M106.68 148.92L104.46 150.87M104.46 150.87L101.99 152.52M101.99 152.52L99.33 153.83M99.33 153.83L96.53 154.78M96.53 154.78L93.62 155.36M93.62 155.36L90.67 155.55M90.67 155.55L87.71 155.36M87.71 155.36L84.8 154.78M84.8 154.78L82 153.83M82 153.83L79.34 152.52M79.34 152.52L76.88 150.87M76.88 150.87L74.65 148.92M74.65 148.92L72.69 146.69M72.69 146.69L71.05 144.23M71.05 144.23L69.74 141.57M69.74 141.57L68.79 138.76M68.79 138.76L68.21 135.86M68.21 135.86L68.01 132.9"
fill="none" stroke="black" stroke-width="0.5"/>
<path d="M68.01 76.27L68.21 73.31M68.21 73.31L68.79 70.41M68.79 70.41L69.74 67.6M69.74 67.6L71.05 64.94M71.05 64.94L72.69 62.48M72.69 62.48L74.65 60.25M74.65 60.25L76.88 58.3M76.88 58.3L79.34 56.65M79.34 56.65L82 55.34M82 55.34L84.8 54.39M84.8 54.39L87.71 53.81M87.71 53.81L90.67 53.62M90.67 53.62L93.62 53.81M93.62 53.81L96.53 54.39M96.53 54.39L99.33 55.34M99.33 55.34L101.99 56.65M101.99 56.65L104.46 58.3M104.46 58.3L106.68 60.25M106.68 60.25L108.64 62.48M108.64 62.48L110.28 64.94M110.28 64.94L111.59 67.6M111.59 67.6L112.55 70.41M112.55 70.41L113.12 73.31M113.12 73.31L113.32 76.27M113.32 76.27L113.12 79.23M113.12 79.23L112.55 82.13M112.55 82.13L111.59 84.94M111.59 84.94L110.28 87.59M110.28 87.59L108.64 90.06M108.64 90.06L106.68 92.29M106.68 92.29L104.46 94.24M104.46 94.24L101.99 95.89M101.99 95.89L99.33 97.2M99.33 97.2L96.53 98.15M96.53 98.15L93.62 98.73M93.62 98.73L90.67 98.92M90.67 98.92L87.71 98.73M87.71 98.73L84.8 98.15M84.8 98.15L82 97.2M82 97.2L79.34 95.89M79.34 95.89L76.88 94.24M76.88 94.24L74.65 92.29M74.65 92.29L72.69 90.06M72.69 90.06L71.05 87.59M71.05 87.59L69.74 84.94M69.74 84.94L68.79 82.13M68.79 82.13L68.21 79.23M68.21 79.23L68.01 76.27"
fill="none" stroke="black" stroke-width="0.5"/>
<path d="M254.9 47.95L45.36 47.95"
fill="none" stroke="black" stroke-width="0.5"/>
<path d="M254.9 161.21L254.9 47.95"
fill="none" stroke="black" stroke-width="0.5"/>
<path d="M45.36 161.21L254.9 161.21"
fill="none" stroke="black" stroke-width="0.5"/>
<path d="M45.36 47.95L45.36 161.21"
fill="none" stroke="black" stroke-width="0.5"/>
</svg>
